HD DESI ROCKERS RELEASES



General
Complete name                    : James.Bond.007-Tomorrow.Never.Dies.1997[DvdRip]Dual.Audio[Eng-Hindi].mkv
Format                           : Matroska
File size                        : 1.41 GiB
Duration                         : 1h 54mn
Overall bit rate                 : 1 765 Kbps
Writing application              : AVI-Mux GUI 1.17.8.3, Feb 16 201019:42:50
Writing library                  : matroska muxer by Alexander Noe, build date Feb 16 2010

Bio
Title				 : James Bond "Tomorrow Never Dies" Pierce Brosnan
Year				 : 1997
Genre				 : Spy | Action
Directer			 : Roger Spottiswoode
Producer			 : Michael G. Wilson | Barbara Broccoli
Languages			 : English.Hindi

Video
ID                               : 1
Format                           : MPEG-4 Visual
Format settings, BVOP            : Yes
Format settings, QPel            : No
Format settings, GMC             : No warppoints
Format settings, Matrix          : Default (H.263)
Codec ID                         : DX50
Codec ID/Hint                    : DivX 5
Duration                         : 1h 54mn
Bit rate                         : 1 218 Kbps
Width                            : 704 pixels
Height                           : 304 pixels
Display aspect ratio             : 2.35:1
Frame rate                       : 25.000 fps
Color space                      : YUV
Chroma subsampling               : 4:2:0
Bit depth                        : 8 bits
Scan type                        : Progressive
Bits/(Pixel*Frame)               : 0.228
Stream size                      : 996 MiB (69%)
Writing library                  : DivX 6.8.5 (UTC 2009-08-20)

Audio #1
ID                               : 2
Format                           : MPEG Audio
Format version                   : Version 1
Format profile                   : Layer 3
Mode                             : Joint stereo
Codec ID                         : A_MPEG/L3
Codec ID/Hint                    : MP3
Duration                         : 1h 54mn
Bit rate mode                    : Constant
Bit rate                         : 256 Kbps
Channel(s)                       : 2 channels
Sampling rate                    : 48.0 KHz
Stream size                      : 209 MiB (15%)
Writing library                  : LAME3.96.1
Language                         : English

Audio #2
ID                               : 3
Format                           : MPEG Audio
Format version                   : Version 1
Format profile                   : Layer 3
Mode                             : Joint stereo
Codec ID                         : A_MPEG/L3
Codec ID/Hint                    : MP3
Duration                         : 1h 54mn
Bit rate mode                    : Constant
Bit rate                         : 256 Kbps
Channel(s)                       : 2 channels
Sampling rate                    : 48.0 KHz
Video delay                      : 5s 500ms
Stream size                      : 209 MiB (15%)
Writing library                  : LAME3.96.1
Language                         : Hindi


Initial Seeding Time will be 2:00 AM to 8:00 AM IST
Enjoy and below are the Screenshots


Screens...
 
http://img23.imageshack.us/img23/2088/20299930.png 
http://img62.imageshack.us/img62/6749/55472467.png 
http://img101.imageshack.us/img101/5934/95906672.png 
http://img297.imageshack.us/img297/8560/20261449.png 
http://img717.imageshack.us/img717/3789/87039244.png 
http://img7.imageshack.us/img7/1806/26670296.png 
http://img710.imageshack.us/img710/8305/26840339.png 
http://img22.imageshack.us/img22/728/75440039.png